<svg width="113" height="72" viewBox="0 0 113 72" fill="none" xmlns="http://www.w3.org/2000/svg">
<g id="freepik--Character--inject-6">
<path id="Vector" d="M61.1793 41.145L66.057 35.7267L69.8983 35.4248L70.4817 39.5803L67.3748 40.9695L63.9823 44.5416L61.9239 45.0108L61.1793 41.145Z" fill="#EFBE9D"/>
<path id="Vector_2" d="M70.2222 14.1032L62.576 50.1997L104.714 59.1256L112.36 23.029L70.2222 14.1032Z" fill="white"/>
<path id="Vector_3" d="M104.709 59.1194L112.31 23.0114L112.345 23.0644L70.2084 14.1496L70.2716 14.1088C67.4952 27.2056 64.8799 39.5496 62.6216 50.2046L62.5849 50.1495L104.711 59.1255L62.5645 50.2494H62.5196V50.2025C64.7758 39.5476 67.387 27.2036 70.1594 14.1067L70.1696 14.0537H70.2206L112.363 22.9808H112.408L112.398 23.0256C107.769 44.768 104.788 58.7522 104.709 59.1194Z" fill="#263238"/>
<path id="Vector_4" d="M71.7682 16.2156L64.8457 48.8955L103.169 57.0135L110.092 24.3336L71.7682 16.2156Z" fill="#EBEBEB"/>
<path id="Vector_5" d="M103.165 57.0082C103.165 57.0082 103.205 56.8042 103.287 56.4064C103.369 56.0086 103.491 55.4231 103.652 54.6602C103.972 53.1302 104.444 50.8903 105.043 48.0343C106.247 42.3223 107.967 34.1623 110.041 24.3193L110.076 24.3723L71.7547 16.2653L71.8179 16.2245C69.3047 28.0769 66.9362 39.25 64.8921 48.9033L64.8554 48.8462L92.5647 54.7397L100.386 56.4085L102.455 56.8511L102.987 56.9674L103.169 57.0082L102.991 56.9735L102.463 56.8654L100.4 56.4329L92.5851 54.7907L64.8411 48.938H64.7963V48.8911C66.8363 39.2378 69.2047 28.0647 71.7119 16.2103L71.7221 16.1572L71.7751 16.1695L110.092 24.2927H110.135V24.3356C108.04 34.1827 106.302 42.3549 105.086 48.0669C104.474 50.9229 103.999 53.1547 103.675 54.6806C103.511 55.4395 103.385 56.0209 103.301 56.4146C103.218 56.8083 103.165 57.0082 103.165 57.0082Z" fill="#263238"/>
<path id="Vector_6" d="M83.807 46.186L82.8054 49.5112L83.091 49.5704L84.8454 46.4043L83.807 46.186Z" fill="#263238"/>
<path id="Vector_7" d="M96.3081 48.8321L95.8756 52.2776L95.5901 52.2184L95.2698 48.6138L96.3081 48.8321Z" fill="#263238"/>
<path id="Vector_8" d="M98.8969 44.1195L82.9092 40.7329L81.8414 45.7741L97.8291 49.1607L98.8969 44.1195Z" fill="#263238"/>
<path id="Vector_9" d="M90.2697 44.8314V44.7886C90.2697 44.758 90.282 44.7192 90.2901 44.6723C90.3126 44.5621 90.3411 44.4153 90.3758 44.2255C90.4554 43.8339 90.5676 43.2749 90.7063 42.5752L90.7328 42.616L83.144 41.0248L83.2052 40.984V40.9983V41.0166V41.0513L83.1889 41.1247L83.1583 41.2696L83.0971 41.5572C83.0563 41.749 83.0175 41.9387 82.9767 42.1264C82.8972 42.5017 82.8197 42.871 82.7421 43.228L82.7034 43.1668L88.1155 44.3377L89.7087 44.6907L90.1392 44.7886L90.2534 44.8151L90.2922 44.8273L90.1494 44.8049L89.7271 44.7213L88.14 44.401L82.6809 43.2688L82.6299 43.2586L82.6422 43.2076L82.8747 42.106C82.9135 41.9183 82.9543 41.7286 82.9951 41.5368C83.0135 41.4409 83.0339 41.3451 83.0543 41.2471L83.0849 41.1023L83.1012 41.0309V40.9942V40.9758V40.9615C83.2277 40.8799 83.1379 40.9391 83.1665 40.9207L90.7614 42.5527H90.794V42.5854C90.6369 43.2912 90.5105 43.8522 90.4227 44.248C90.3799 44.4316 90.3473 44.5764 90.3228 44.6825C90.3081 44.7331 90.2904 44.7829 90.2697 44.8314Z" fill="#455A64"/>
<path id="Vector_10" d="M89.7679 47.1998C89.7679 47.1998 89.7679 47.1835 89.7679 47.157L89.7883 47.0407C89.8107 46.9305 89.8393 46.7836 89.876 46.5939C89.9535 46.2022 90.0657 45.6433 90.2065 44.9436L90.231 44.9844L82.6279 43.3932L82.6911 43.3524V43.3666V43.385V43.4197L82.6768 43.4931L82.6442 43.638C82.6238 43.7338 82.6034 43.8318 82.5851 43.9256L82.4626 44.4948C82.3831 44.8701 82.3056 45.2394 82.2281 45.5964L82.1893 45.5352L87.6014 46.7061L89.1946 47.059L89.6251 47.157L89.7393 47.1835L89.7781 47.1957L89.6353 47.1733L89.213 47.0896L87.6259 46.7694L82.1668 45.6372H82.1179L82.124 45.5841L82.3566 44.4825C82.3953 44.2948 82.4361 44.1051 82.4769 43.9134L82.5381 43.6237L82.5687 43.4788L82.583 43.4074V43.3707V43.3524V43.3401L82.6462 43.2993L90.2412 44.9313H90.2738V44.964C90.1167 45.6698 89.9903 46.2308 89.9025 46.6266C89.8597 46.8102 89.8271 46.955 89.8026 47.0611C89.7935 47.1079 89.7819 47.1542 89.7679 47.1998Z" fill="#455A64"/>
<path id="Vector_11" d="M98.1217 46.4942V46.4513C98.1217 46.4207 98.1339 46.382 98.1421 46.3351C98.1645 46.2249 98.1931 46.078 98.2298 45.8883C98.3073 45.4966 98.4195 44.9397 98.5603 44.2379L98.5848 44.2787L90.9817 42.6875L91.0449 42.6467V42.661V42.6794V42.7161L91.0306 42.7875L90.998 42.9323C90.9776 43.0303 90.9572 43.1363 90.9388 43.222L90.8164 43.7912C90.7362 44.1665 90.658 44.5331 90.5818 44.8907L90.5431 44.8295L95.9552 46.0005L97.5484 46.3534L97.9789 46.4513L98.0931 46.4779L98.1319 46.4901C98.0837 46.4873 98.0358 46.4798 97.9891 46.4677L97.5668 46.384L95.9797 46.0637L90.5206 44.9315L90.4717 44.9213V44.8703L90.7042 43.7687C90.743 43.5811 90.7838 43.3913 90.8246 43.1996L90.8858 42.9119L90.9164 42.7651L90.9307 42.6937V42.6569V42.6386V42.6243L90.9939 42.5835L98.5888 44.2155H98.6215V44.2481C98.4644 44.954 98.3379 45.515 98.2502 45.9107C98.2074 46.0943 98.1747 46.2392 98.1502 46.3453C98.144 46.3955 98.1344 46.4452 98.1217 46.4942Z" fill="#455A64"/>
<path id="Vector_12" d="M97.628 48.8625V48.8196C97.628 48.789 97.6403 48.7503 97.6484 48.7034C97.6709 48.5932 97.6994 48.4463 97.7361 48.2566C97.8137 47.8649 97.9259 47.308 98.0666 46.6062L98.0911 46.647L90.488 45.0558L90.5513 45.015V45.0293V45.0477V45.0844L90.537 45.1558L90.5064 45.3006L90.4452 45.5903L90.3228 46.1574L90.0902 47.259L90.0494 47.1978L95.4615 48.3688L97.0568 48.7217L97.4873 48.8196L97.5995 48.8462L97.6382 48.8584C97.59 48.8556 97.5422 48.8481 97.4954 48.836L97.0731 48.7523L95.4677 48.4402L90.0107 47.308L89.9597 47.2978L89.9699 47.2468L90.2024 46.1452C90.2412 45.9575 90.282 45.7678 90.3228 45.576L90.384 45.2884L90.4146 45.1415L90.4289 45.0701V45.0334V45.015V45.0008L90.4921 44.96L98.087 46.592H98.1217V46.6246C97.9646 47.3304 97.8381 47.8914 97.7504 48.2872C97.7076 48.4708 97.6749 48.6156 97.6505 48.7217C97.6459 48.7691 97.6384 48.8161 97.628 48.8625Z" fill="#455A64"/>
<path id="Vector_13" d="M83.144 40.9718C83.1216 40.9922 83.0522 40.9555 82.989 40.8882C82.9257 40.8209 82.8911 40.7495 82.9115 40.7291C82.9319 40.7087 83.0012 40.7474 83.0665 40.8148C83.1318 40.8821 83.1665 40.9535 83.144 40.9718Z" fill="#455A64"/>
<path id="Vector_14" d="M82.1444 45.584C82.1587 45.6085 82.1016 45.6738 82.0138 45.7268C81.9261 45.7799 81.8445 45.8044 81.8302 45.7799C81.816 45.7554 81.8711 45.6901 81.9588 45.6371C82.0465 45.584 82.124 45.5555 82.1444 45.584Z" fill="#455A64"/>
<path id="Vector_15" d="M97.832 49.1561C97.832 49.1847 94.2375 48.4483 89.8148 47.5119C85.3921 46.5755 81.8139 45.7942 81.82 45.7636C81.8262 45.733 85.4145 46.4715 89.8372 47.4079C94.26 48.3442 97.832 49.1276 97.832 49.1561Z" fill="#455A64"/>
<path id="Vector_16" d="M86.4366 45.3189C86.4182 45.3189 86.4366 45.2251 86.355 45.1415C86.3323 45.1195 86.3048 45.1031 86.2748 45.0935C86.2447 45.084 86.2128 45.0815 86.1816 45.0864C86.1451 45.0945 86.1115 45.1125 86.0845 45.1384C86.0575 45.1643 86.0382 45.1971 86.0286 45.2333C86.0194 45.2713 86.0222 45.3113 86.0364 45.3477C86.0506 45.3842 86.0756 45.4154 86.1081 45.4373C86.1347 45.4545 86.165 45.4654 86.1965 45.4689C86.228 45.4725 86.2599 45.4686 86.2897 45.4577C86.3999 45.4148 86.4203 45.323 86.4366 45.3291C86.4529 45.3353 86.4468 45.3536 86.4366 45.3924C86.4277 45.4211 86.4132 45.4478 86.3939 45.4709C86.3746 45.494 86.351 45.5131 86.3244 45.527C86.284 45.5501 86.2383 45.5622 86.1918 45.5622C86.1453 45.5622 86.0996 45.5501 86.0592 45.527C86.008 45.4976 85.9674 45.4527 85.9434 45.3987C85.9193 45.3448 85.9129 45.2846 85.9251 45.2269C85.9374 45.1691 85.9676 45.1167 86.0115 45.0771C86.0553 45.0376 86.1106 45.013 86.1693 45.0068C86.2155 45.0013 86.2623 45.0077 86.3052 45.0256C86.3481 45.0435 86.3856 45.0721 86.4141 45.1088C86.4518 45.1568 86.4694 45.2175 86.4631 45.2781C86.4549 45.3026 86.4427 45.321 86.4366 45.3189Z" fill="#455A64"/>
<path id="Vector_17" d="M86.9364 42.9507C86.92 42.9507 86.9364 42.8569 86.8568 42.7732C86.8339 42.751 86.8061 42.7344 86.7756 42.7248C86.7452 42.7152 86.7129 42.713 86.6814 42.7182C86.6452 42.7266 86.6121 42.7447 86.5855 42.7706C86.5589 42.7965 86.5398 42.8291 86.5304 42.865C86.5234 42.9016 86.5273 42.9394 86.5414 42.9738C86.5555 43.0082 86.5793 43.0377 86.61 43.0588C86.6366 43.0761 86.6668 43.087 86.6983 43.0905C86.7298 43.094 86.7618 43.0902 86.7915 43.0792C86.9017 43.0364 86.9221 42.9446 86.9364 42.9507C86.9506 42.9568 86.9486 42.9752 86.9364 43.014C86.9274 43.0427 86.9129 43.0694 86.8937 43.0925C86.8744 43.1156 86.8508 43.1346 86.8242 43.1486C86.7838 43.1717 86.7381 43.1838 86.6916 43.1838C86.6451 43.1838 86.5993 43.1717 86.559 43.1486C86.5078 43.1192 86.4672 43.0742 86.4431 43.0203C86.4191 42.9664 86.4127 42.9062 86.4249 42.8485C86.4372 42.7907 86.4674 42.7383 86.5112 42.6987C86.5551 42.6592 86.6104 42.6346 86.6691 42.6284C86.7153 42.6228 86.7621 42.6293 86.805 42.6472C86.8478 42.665 86.8854 42.6937 86.9139 42.7304C86.9507 42.7788 86.9682 42.8392 86.9629 42.8997C86.9568 42.9324 86.9445 42.9528 86.9364 42.9507Z" fill="#455A64"/>
<path id="Vector_18" d="M94.3824 47.0123C94.366 47.0123 94.3824 46.9185 94.3028 46.8348C94.2799 46.8125 94.2521 46.796 94.2216 46.7864C94.1912 46.7768 94.1589 46.7745 94.1274 46.7797C94.0906 46.7868 94.0567 46.8045 94.0299 46.8306C94.0031 46.8567 93.9845 46.8901 93.9764 46.9266C93.966 46.9647 93.9681 47.005 93.9824 47.0418C93.9968 47.0785 94.0225 47.1097 94.056 47.1306C94.0826 47.1479 94.1128 47.1587 94.1443 47.1623C94.1758 47.1658 94.2078 47.162 94.2375 47.151C94.3456 47.1082 94.366 47.0164 94.3824 47.0225C94.3987 47.0286 94.3824 47.047 94.3824 47.0857C94.3629 47.1429 94.3229 47.1909 94.2702 47.2204C94.2292 47.2429 94.1833 47.2547 94.1365 47.2547C94.0898 47.2547 94.0439 47.2429 94.0029 47.2204C93.9529 47.1901 93.9135 47.1451 93.8903 47.0915C93.867 47.0378 93.861 46.9783 93.8731 46.9211C93.8852 46.864 93.9149 46.812 93.9579 46.7724C94.0009 46.7328 94.0551 46.7075 94.1131 46.7002C94.1592 46.6946 94.206 46.7011 94.2489 46.719C94.2918 46.7368 94.3293 46.7655 94.3579 46.8022C94.3769 46.8257 94.3911 46.8528 94.3995 46.8819C94.4079 46.911 94.4104 46.9414 94.4068 46.9715C94.4028 46.9858 94.3885 47.0123 94.3824 47.0123Z" fill="#455A64"/>
<path id="Vector_19" d="M94.8842 44.6333C94.8658 44.6333 94.8842 44.5395 94.8026 44.4559C94.7799 44.4339 94.7525 44.4175 94.7224 44.4079C94.6923 44.3984 94.6604 44.3959 94.6292 44.4008C94.5923 44.4076 94.5583 44.4252 94.5315 44.4513C94.5046 44.4775 94.4861 44.511 94.4782 44.5477C94.4701 44.5842 94.4734 44.6224 94.4877 44.657C94.5019 44.6917 94.5264 44.7211 94.5578 44.7415C94.5844 44.7587 94.6146 44.7696 94.6462 44.7731C94.6777 44.7767 94.7096 44.7728 94.7394 44.7619C94.8475 44.719 94.8679 44.6272 94.8842 44.6333C94.9005 44.6395 94.8944 44.6578 94.8842 44.6966C94.8645 44.7543 94.8237 44.8024 94.77 44.8312C94.7296 44.8543 94.6839 44.8664 94.6374 44.8664C94.5908 44.8664 94.5451 44.8543 94.5048 44.8312C94.4547 44.801 94.4154 44.7559 94.3921 44.7023C94.3689 44.6487 94.3629 44.5892 94.375 44.532C94.3871 44.4748 94.4167 44.4228 94.4597 44.3832C94.5027 44.3436 94.5569 44.3184 94.6149 44.311C94.661 44.3055 94.7078 44.3119 94.7507 44.3298C94.7936 44.3477 94.8312 44.3763 94.8597 44.413C94.8974 44.461 94.915 44.5217 94.9087 44.5823C94.9046 44.617 94.8903 44.6354 94.8842 44.6333Z" fill="#455A64"/>
<path id="Vector_20" d="M98.9071 44.1032C98.9071 44.1338 98.8459 44.1726 98.7623 44.2093C98.6786 44.246 98.6052 44.2684 98.5889 44.244C98.5725 44.2195 98.6256 44.1522 98.7194 44.1114C98.8133 44.0706 98.901 44.0767 98.9071 44.1032Z" fill="#455A64"/>
<path id="Vector_21" d="M97.8728 49.1642C97.8504 49.1826 97.7769 49.1275 97.7096 49.0418C97.6423 48.9561 97.6076 48.8704 97.6321 48.8521C97.6566 48.8337 97.728 48.8908 97.7953 48.9765C97.8626 49.0622 97.8952 49.1479 97.8728 49.1642Z" fill="#455A64"/>
<path id="Vector_22" d="M65.9611 45.7041L65.289 48.8408L103.584 57.0468L104.256 53.9101L65.9611 45.7041Z" fill="#E0E0E0"/>
<path id="Vector_23" d="M76.9077 34.976C77.0789 32.509 76.5537 30.0435 75.392 27.8604C73.4581 24.2088 71.059 23.8539 71.059 23.8539C71.059 23.8539 73.9354 23.3949 76.0427 27.3219C77.2973 29.6694 77.6067 32.4077 76.9077 34.976Z" fill="#455A64"/>
<path id="Vector_24" d="M78.7886 22.6666C78.7519 22.5625 77.4075 30.2676 77.4075 30.2676L76.873 35.8837C76.873 35.8837 78.1644 31.9159 78.4948 29.8127C78.8253 27.7095 79.1211 23.6152 78.7886 22.6666Z" fill="#455A64"/>
<path id="Vector_25" d="M81.6344 23.2705C81.6344 23.2705 80.3268 23.754 78.7968 29.2844C77.6258 33.5236 77.0954 35.129 76.922 35.6533C76.8946 35.7274 76.8781 35.805 76.873 35.8838C76.873 35.8838 79.0966 32.1894 79.9555 30.1208C80.8143 28.0523 80.8857 24.827 81.6344 23.2705Z" fill="#455A64"/>
<path id="Vector_26" d="M76.8934 37.0936C76.8588 37.2324 77.738 35.3494 80.698 33.4339C83.452 31.6509 84.4945 31.7774 84.4945 31.7774C84.4945 31.7774 82.0608 31.606 80.1248 32.9728C78.4153 34.1785 77.2525 35.684 76.8934 37.0936Z" fill="#455A64"/>
<path id="Vector_27" d="M76.159 39.2602C76.0978 38.23 76.0081 37.1835 75.6225 36.2267C75.237 35.27 74.5128 34.4009 73.5336 34.0786C74.9004 35.6045 75.7939 37.2202 76.159 39.2602Z" fill="#455A64"/>
<path id="Vector_28" d="M76.975 35.4105C76.975 35.4105 77.3239 31.5222 74.8514 29.7658C73.4744 28.7866 71.1325 28.7295 71.1325 28.7295C71.1325 28.7295 73.8906 29.6842 74.8045 30.5655C75.7184 31.4468 76.975 35.4105 76.975 35.4105Z" fill="#455A64"/>
<path id="Vector_29" d="M74.6168 46.4778C74.6145 46.4622 74.6145 46.4464 74.6168 46.4309C74.625 46.3928 74.6331 46.3459 74.6413 46.2901C74.6678 46.1575 74.7025 45.978 74.7453 45.7495C74.8432 45.2742 74.9799 44.601 75.1533 43.7728L76.5181 37.255C76.5854 36.9367 76.6527 36.6226 76.7221 36.3125L76.82 35.8514C76.8404 35.7739 76.8465 35.7005 76.8751 35.6189C76.9036 35.5373 76.9424 35.4781 76.971 35.4149C77.0893 35.1354 77.1872 34.8498 77.3055 34.5764C77.4238 34.3031 77.5381 34.042 77.6482 33.7829C77.8706 33.2647 78.093 32.7792 78.2786 32.312C78.4642 31.8449 78.6397 31.4165 78.8008 31.0228C78.962 30.629 79.0864 30.2639 79.2088 29.9456C79.3312 29.6274 79.4128 29.3561 79.5026 29.1296C79.5924 28.9032 79.6454 28.74 79.6923 28.6156L79.7392 28.4809C79.744 28.4651 79.7509 28.45 79.7596 28.436C79.7585 28.4521 79.7551 28.4679 79.7494 28.483L79.7127 28.6217C79.678 28.742 79.6168 28.9175 79.5414 29.1439C79.4659 29.3704 79.372 29.6478 79.2639 29.9599C79.1558 30.272 79.0375 30.6494 78.8743 31.0432C78.7111 31.4369 78.5479 31.8755 78.3643 32.3406C78.1807 32.8057 77.9563 33.2953 77.7523 33.8155C77.6401 34.0746 77.5279 34.3398 77.4116 34.6111C77.2953 34.8824 77.2076 35.166 77.0791 35.4496C77.0505 35.521 77.0118 35.5964 76.9852 35.6536C76.9587 35.7107 76.9526 35.8004 76.9342 35.8718C76.9016 36.0248 76.871 36.1778 76.8384 36.3329C76.7731 36.643 76.7058 36.9571 76.6344 37.2754C76.0897 39.8131 75.598 42.1122 75.239 43.785C75.0574 44.6112 74.9106 45.2824 74.8045 45.7577C74.7535 45.9821 74.7127 46.1657 74.6821 46.2922L74.6474 46.4309C74.625 46.4635 74.6188 46.4798 74.6168 46.4778Z" fill="#263238"/>
<path id="Vector_30" d="M77.4442 36.0063C77.3896 36.1682 77.3213 36.3252 77.2402 36.4756C77.1036 36.7612 76.9261 37.159 76.7506 37.6098C76.5752 38.0606 76.4365 38.4727 76.3426 38.7746C76.2981 38.9405 76.2394 39.1022 76.1672 39.2581C76.1827 39.0861 76.2176 38.9164 76.2712 38.7522C76.377 38.3516 76.505 37.9573 76.6548 37.571C76.8055 37.184 76.9799 36.8065 77.177 36.4409C77.247 36.2851 77.3368 36.1391 77.4442 36.0063Z" fill="#263238"/>
<path id="Vector_31" d="M76.004 48.0585C76.6935 47.6505 76.975 46.7753 76.9261 45.9756C76.8771 45.1759 76.565 44.4252 76.3345 43.6602L74.2129 43.2114C73.6906 43.8234 73.099 44.3783 72.7318 45.0882C72.3646 45.7981 72.2626 46.7202 72.7318 47.3649L76.004 48.0585Z" fill="#D6674C"/>
<path id="Vector_32" d="M78.605 25.9082C78.6108 25.9413 78.6108 25.9751 78.605 26.0082C78.605 26.0836 78.5907 26.1775 78.5805 26.2876C78.554 26.5324 78.5111 26.8833 78.454 27.3076C78.3377 28.1746 78.1541 29.3701 77.9257 30.6859C77.6972 32.0017 77.4646 33.1869 77.2729 34.0417C77.179 34.4701 77.0933 34.8128 77.0301 35.0494C77.0015 35.1576 76.975 35.2534 76.9546 35.3208C76.9471 35.3531 76.9362 35.3846 76.922 35.4146C76.9205 35.3815 76.9246 35.3484 76.9342 35.3167C76.9485 35.2412 76.9689 35.1494 76.9913 35.0413C77.0444 34.7842 77.1137 34.4415 77.1953 34.0213C77.3687 33.1645 77.5891 31.9813 77.8073 30.6634C78.0256 29.3456 78.2296 28.1563 78.3643 27.2913C78.4295 26.8833 78.4846 26.5263 78.5234 26.2713C78.5417 26.1591 78.5581 26.0673 78.5703 25.9918C78.5796 25.9631 78.5912 25.9351 78.605 25.9082Z" fill="#263238"/>
<path id="Vector_33" d="M76.2386 28.7744C76.2769 28.8387 76.3077 28.9071 76.3304 28.9784C76.3834 29.111 76.4528 29.3069 76.5344 29.5496C76.9401 30.82 77.164 32.1414 77.1994 33.4746C77.1994 33.7296 77.1994 33.9356 77.1994 34.0866C77.2025 34.1606 77.1956 34.2347 77.179 34.3069C77.1627 34.3069 77.1586 33.9927 77.128 33.4909C77.0523 32.1683 76.8307 30.8582 76.4671 29.5843C76.3222 29.0784 76.2223 28.7805 76.2386 28.7744Z" fill="#263238"/>
<path id="Vector_34" d="M74.7657 30.0312C74.8337 30.0669 74.8956 30.1131 74.9493 30.1679C75.1054 30.3062 75.2507 30.4562 75.3838 30.6167C75.5812 30.8534 75.7638 31.1021 75.9306 31.3613C76.1314 31.6841 76.2923 32.03 76.41 32.3915C76.6291 33.0399 76.8042 33.7024 76.9342 34.3744C76.9873 34.6314 77.022 34.8416 77.0444 34.9864C77.061 35.0607 77.0686 35.1367 77.0668 35.2128C77.0366 35.1431 77.0153 35.0697 77.0036 34.9946C76.9648 34.8293 76.9179 34.6274 76.8608 34.3826C76.7384 33.8746 76.5691 33.1708 76.31 32.418C76.1953 32.0614 76.0399 31.7191 75.8469 31.398C75.6867 31.1384 75.5124 30.8878 75.3247 30.6473C75.1635 30.4433 75.0228 30.2862 74.9167 30.1802C74.8623 30.1348 74.8118 30.085 74.7657 30.0312Z" fill="#263238"/>
<path id="Vector_35" d="M104.335 26.6209L103.555 26.4556L100.793 39.4936L101.574 39.6589L104.335 26.6209Z" fill="#263238"/>
<path id="Vector_36" d="M103.527 26.5791L87.7509 23.2373L85.0373 36.0478L100.813 39.3896L103.527 26.5791Z" fill="white"/>
<path id="Vector_37" d="M101.055 39.7475L84.6801 36.2795L87.5198 22.8706L103.895 26.3386L101.055 39.7475ZM85.4064 35.8062L100.584 39.0213L103.169 26.816L87.991 23.603L85.4064 35.8062Z" fill="#455A64"/>
<path id="Vector_38" d="M101.014 27.8431L89.3649 25.3755L87.4435 34.446L99.0925 36.9136L101.014 27.8431Z" fill="#E0E0E0"/>
<path id="Vector_39" d="M47.1278 40.9902L49.892 49.8479L59.0985 41.6879L62.5665 44.648C62.5665 44.648 54.7533 57.0675 50.963 59.4053C46.7586 62.0002 41.7565 58.5893 41.1241 56.0862C40.4917 53.5832 37.1624 42.3611 37.1624 42.3611L47.1278 40.9902Z" fill="#EFBE9D"/>
<path id="Vector_40" d="M50.1103 49.6929C50.1205 49.7112 49.8675 49.852 49.5126 50.1457C49.3053 50.3197 49.1116 50.5093 48.9332 50.7129C48.4969 51.211 48.161 51.7887 47.9438 52.4142C47.8557 52.6697 47.7875 52.9316 47.7398 53.1976C47.6582 53.6525 47.6602 53.9422 47.6398 53.9422C47.6265 53.8751 47.6217 53.8065 47.6256 53.7382C47.6199 53.6587 47.6199 53.579 47.6256 53.4995C47.6256 53.4077 47.6358 53.2955 47.6562 53.1853C47.6955 52.9132 47.7583 52.645 47.8438 52.3836C48.0562 51.7411 48.4001 51.1499 48.8536 50.6476C49.0408 50.4437 49.2456 50.2566 49.4656 50.0886C49.5554 50.0131 49.6472 49.9581 49.7227 49.905C49.7884 49.8599 49.8565 49.8184 49.9267 49.7806C49.9836 49.7431 50.0454 49.7136 50.1103 49.6929Z" fill="#E7996E"/>
<path id="Vector_41" d="M40.2081 49.7803L49.892 47.167C49.892 47.167 47.8153 41.0246 46.1996 36.5856C44.7716 32.6708 42.3787 31.0408 41.1343 30.1555C40.6318 29.7949 40.0481 29.5636 39.435 29.4823C37.144 29.1763 30.8772 28.3521 27.7682 28.093C23.9228 27.7728 15.8913 29.8903 15.8913 29.8903C15.8913 29.8903 8.84924 33.7948 6.47468 35.384C5.89238 35.7691 5.44737 36.3291 5.20376 36.9834C4.76516 38.1645 4.2062 40.1943 3.53708 42.8198C3.11072 44.4885 1.70108 50.0128 1.70108 50.0128L9.96104 49.7578C11.6257 54.813 13.1679 59.3458 13.1679 59.3458L12.4988 71.4553H43.1314C43.1314 71.4553 40.304 52.724 40.304 52.2895C40.304 52.1304 40.2652 51.0594 40.2081 49.7803Z" fill="#D6674C"/>
<g id="Group" opacity="0.3">
<path id="Vector_42" d="M30.6813 39.9497C30.0693 39.1765 29.0167 38.8603 28.0416 38.9582C27.0664 39.0561 26.1607 39.5172 25.3488 40.068C22.8436 41.7673 21.0648 44.3295 19.494 46.9142C16.7521 51.4204 14.4486 56.179 12.6151 61.1249L12.6783 62.3897C14.7326 62.1306 16.0708 60.3986 16.9623 58.532C17.8538 56.6654 18.2373 54.5928 19.0227 52.6793C20.5542 49.0033 23.4761 46.0813 27.1521 44.5499C28.3761 44.6763 29.6899 44.2826 30.4896 43.3483C31.2892 42.414 31.4422 40.9146 30.6813 39.9497Z" fill="black"/>
</g>
<path id="Vector_43" d="M40.304 51.3839C40.2571 51.3839 39.9837 48.7054 39.692 45.3944C39.4003 42.0835 39.2004 39.3928 39.2452 39.3887C39.2901 39.3846 39.5655 42.0652 39.8572 45.3802C40.149 48.6952 40.3468 51.3798 40.304 51.3839Z" fill="#263238"/>
<path id="Vector_44" d="M7.76193 39.3887C7.81719 39.5199 7.85822 39.6567 7.88433 39.7967C7.95573 40.0986 8.04753 40.4842 8.15565 40.9452C8.37801 41.9162 8.67381 43.2586 8.99001 44.7457C9.30621 46.2329 9.58569 47.5793 9.77949 48.5564C9.86721 49.0216 9.94065 49.4112 9.99981 49.7151C10.0334 49.8563 10.0526 50.0005 10.0569 50.1456C10.0042 50.0136 9.96392 49.877 9.93657 49.7376C9.86517 49.4357 9.77337 49.0501 9.66525 48.5891C9.44289 47.618 9.14709 46.2757 8.82885 44.7886C8.51061 43.3014 8.23521 41.955 8.04141 40.9778C7.95369 40.5127 7.87821 40.1231 7.82109 39.8171C7.78762 39.6765 7.76781 39.533 7.76193 39.3887Z" fill="#263238"/>
<path id="Vector_45" d="M38.825 29.5986C38.874 29.6109 38.5945 30.686 38.4027 32.0466C38.211 33.4073 38.1702 34.5069 38.1212 34.4946C38.0783 34.2544 38.0673 34.0095 38.0886 33.7664C38.1048 33.1791 38.1552 32.5933 38.2395 32.0119C38.322 31.4295 38.4391 30.8525 38.5904 30.2841C38.639 30.0465 38.7178 29.8162 38.825 29.5986Z" fill="#263238"/>
<path id="Vector_46" d="M25.616 35.2189L28.4026 29.5987L27.5377 27.1507C27.5377 27.1507 31.7176 24.9802 30.2896 20.5513C29.6001 18.4134 27.8212 14.1253 26.1668 10.2636C25.3084 8.26058 23.7274 6.65412 21.7383 5.7639C19.7493 4.87369 17.4979 4.76498 15.4323 5.45942L15.008 5.60018C10.5098 7.4117 9.53467 12.2424 11.4686 16.6896L17.1255 33.2136L25.616 35.2189Z" fill="#EFBE9D"/>
<path id="Vector_47" d="M27.5377 27.1343C27.5377 27.1343 24.8265 28.2991 21.2382 27.4342C21.2382 27.4342 23.6658 30.1514 27.9314 28.2746L27.5377 27.1343Z" fill="#E7996E"/>
<path id="Vector_48" d="M26.4014 14.6213C26.4577 14.7851 26.4481 14.9644 26.3747 15.1212C26.3012 15.2781 26.1696 15.4002 26.0077 15.4618C25.9297 15.495 25.8459 15.5123 25.7611 15.5128C25.6763 15.5132 25.5923 15.4966 25.5141 15.4641C25.4358 15.4316 25.3648 15.3838 25.3052 15.3235C25.2456 15.2632 25.1987 15.1916 25.1672 15.1129C25.1102 14.9494 25.1193 14.7701 25.1924 14.6132C25.2655 14.4562 25.397 14.334 25.5589 14.2724C25.637 14.2389 25.721 14.2213 25.806 14.2207C25.891 14.2201 25.9752 14.2366 26.0537 14.2691C26.1323 14.3016 26.2035 14.3495 26.2632 14.41C26.3229 14.4705 26.3699 14.5423 26.4014 14.6213Z" fill="#263238"/>
<path id="Vector_49" d="M25.9261 12.4751C25.8771 12.5832 25.2794 12.3894 24.6021 12.62C23.9248 12.8505 23.5434 13.3544 23.4414 13.2972C23.3924 13.2728 23.423 13.0932 23.5862 12.8668C23.8116 12.5652 24.1242 12.3401 24.4818 12.2222C24.8338 12.1035 25.2144 12.0992 25.5691 12.2099C25.8322 12.2997 25.9526 12.4241 25.9261 12.4751Z" fill="#263238"/>
<path id="Vector_50" d="M20.516 16.3855C20.5728 16.549 20.5634 16.7282 20.4899 16.8848C20.4163 17.0415 20.2844 17.1632 20.1223 17.2239C20.0444 17.2574 19.9605 17.275 19.8756 17.2755C19.7908 17.2761 19.7067 17.2596 19.6283 17.2271C19.55 17.1946 19.4789 17.1467 19.4194 17.0862C19.3599 17.0257 19.3131 16.9539 19.2818 16.8751C19.2255 16.7113 19.2351 16.532 19.3085 16.3751C19.382 16.2183 19.5136 16.0961 19.6755 16.0346C19.7536 16.0014 19.8376 15.9842 19.9224 15.9839C20.0073 15.9836 20.0914 16.0003 20.1697 16.033C20.248 16.0657 20.319 16.1137 20.3784 16.1743C20.4379 16.2348 20.4847 16.3066 20.516 16.3855Z" fill="#263238"/>
<path id="Vector_51" d="M19.343 14.4823C19.3042 14.5945 18.6902 14.468 18.0415 14.7699C17.3928 15.0718 17.0684 15.6165 16.9623 15.5696C16.9113 15.5492 16.9195 15.3656 17.0582 15.1269C17.2483 14.8031 17.5331 14.5454 17.8742 14.3884C18.2119 14.2323 18.5902 14.1866 18.9554 14.2579C19.2288 14.3191 19.3634 14.4292 19.343 14.4823Z" fill="#263238"/>
<path id="Vector_52" d="M23.4679 19.2949C23.4536 19.2561 23.8494 19.0419 24.5022 18.7257C24.6694 18.6482 24.8224 18.5605 24.8122 18.432C24.7662 18.2478 24.6652 18.082 24.5226 17.9567L23.576 16.8204C22.2357 15.1884 21.2014 13.8134 21.2688 13.7604C21.3361 13.7073 22.4764 14.9844 23.8167 16.6286C24.1452 17.0366 24.4573 17.4201 24.7531 17.7894C24.8857 17.9648 25.0734 18.1505 25.0713 18.4381C25.0663 18.508 25.0454 18.5758 25.01 18.6363C24.9746 18.6968 24.9258 18.7483 24.8673 18.7869C24.7796 18.8452 24.685 18.8924 24.5858 18.9277C23.9085 19.1847 23.4842 19.3316 23.4679 19.2949Z" fill="#263238"/>
<path id="Vector_53" d="M18.423 12.1282C18.423 12.3322 17.711 12.475 16.948 12.8382C16.1851 13.2013 15.6139 13.6338 15.4548 13.5032C15.3793 13.44 15.4344 13.2298 15.6322 12.9646C15.9049 12.6295 16.2504 12.3609 16.6424 12.1792C17.0344 11.9975 17.4626 11.9075 17.8946 11.9161C18.2251 11.9242 18.4209 12.0222 18.423 12.1282Z" fill="#263238"/>
<path id="Vector_54" d="M25.1183 10.6511C25.0509 10.8551 24.5307 10.8428 23.9677 11.0244C23.4047 11.2059 22.964 11.4752 22.8008 11.3508C22.7274 11.2896 22.7498 11.1101 22.9089 10.8938C23.1295 10.6259 23.4246 10.4294 23.7568 10.3291C24.0891 10.2289 24.4436 10.2295 24.7755 10.3308C25.0285 10.4205 25.1468 10.5572 25.1183 10.6511Z" fill="#263238"/>
<path id="Vector_55" d="M12.9211 19.8271C12.8354 19.8271 9.58975 19.9495 10.6995 22.932C11.8093 25.9145 14.5755 24.1846 14.549 24.0969C14.5225 24.0091 12.9211 19.8271 12.9211 19.8271Z" fill="#EFBE9D"/>
<path id="Vector_56" d="M13.2169 23.3075C13.2006 23.3075 13.1781 23.3626 13.1067 23.436C13.0031 23.5351 12.8646 23.5894 12.7212 23.587C12.3621 23.587 11.9052 23.179 11.7012 22.6567C11.5974 22.4035 11.5521 22.1302 11.5686 21.8571C11.5625 21.7535 11.5814 21.6499 11.6237 21.5552C11.6659 21.4604 11.7303 21.3771 11.8113 21.3124C11.8652 21.2748 11.9305 21.2571 11.996 21.2623C12.0615 21.2675 12.1231 21.2953 12.1704 21.3409C12.2418 21.4103 12.2459 21.4776 12.2642 21.4756C12.2826 21.4735 12.3091 21.4021 12.2397 21.2879C12.1955 21.2201 12.1292 21.1696 12.0521 21.1451C12 21.1288 11.9452 21.1231 11.8909 21.1284C11.8365 21.1336 11.7838 21.1497 11.7359 21.1757C11.6222 21.2455 11.5284 21.3433 11.4634 21.4598C11.3984 21.5762 11.3644 21.7074 11.3646 21.8407C11.335 22.1461 11.3798 22.4541 11.4951 22.7383C11.7379 23.332 12.254 23.7808 12.7314 23.7441C12.8203 23.7381 12.9067 23.712 12.984 23.6679C13.0614 23.6237 13.1278 23.5626 13.1781 23.4891C13.2393 23.3809 13.2291 23.3075 13.2169 23.3075Z" fill="#E7996E"/>
<path id="Vector_57" d="M21.6319 20.4329C21.74 20.3901 21.9889 21.1245 22.7947 21.4346C23.6005 21.7447 24.3553 21.4019 24.3961 21.5019C24.4206 21.5447 24.2696 21.7059 23.9412 21.8242C23.5119 21.9752 23.0431 21.9702 22.6172 21.8099C22.2091 21.6553 21.877 21.348 21.6911 20.9531C21.5585 20.6553 21.5809 20.4452 21.6319 20.4329Z" fill="#263238"/>
<path id="Vector_58" d="M27.248 3.72948C27.1119 3.45683 26.9102 3.22232 26.6609 3.0471C26.4116 2.87188 26.1226 2.76146 25.82 2.72581C25.7616 2.55853 25.6871 2.39729 25.5976 2.24436C25.0509 1.31821 23.8187 0.816365 22.8191 1.22437C22.6063 0.865828 22.2996 0.572187 21.9321 0.375097C21.5647 0.178007 21.1504 0.0849423 20.734 0.105932C20.3175 0.126922 19.9147 0.261173 19.5689 0.494211C19.2231 0.72725 18.9475 1.05024 18.7718 1.42837C18.284 1.23224 17.7499 1.18084 17.2337 1.28034C16.7174 1.37983 16.2407 1.626 15.8607 1.98937C15.7631 2.07659 15.6923 2.1898 15.6567 2.31576C15.6482 2.35811 15.6482 2.4017 15.6566 2.44406C15.665 2.48642 15.6817 2.5267 15.7057 2.5626C15.4912 2.38626 15.2372 2.26447 14.9655 2.20762C14.6937 2.15078 14.4122 2.16059 14.1451 2.2362C13.964 2.29083 13.7941 2.37717 13.6432 2.4912C13.1794 2.69321 12.8133 3.06891 12.6232 3.53772C11.9476 3.54704 11.2988 3.80388 10.7999 4.25957C10.3009 4.71527 9.9865 5.33816 9.91615 6.0102C9.43398 6.21138 9.02273 6.55173 8.73494 6.98778C8.44714 7.42382 8.29588 7.93577 8.30047 8.4582C7.99118 8.59113 7.72233 8.80314 7.52095 9.07291C7.31957 9.34269 7.19276 9.66072 7.15327 9.99505C7.11378 10.3294 7.163 10.6682 7.29598 10.9775C7.42896 11.2867 7.64102 11.5556 7.91083 11.7569C7.91083 11.7569 5.96059 12.9462 7.14175 14.6476C7.75375 15.5166 8.97775 14.9148 8.97775 14.9148L12.6498 20.4616C12.6334 20.5003 13.2801 21.0736 13.5922 20.8002C13.9043 20.5268 13.986 20.0801 14.0818 19.6762C14.194 19.2131 14.3532 18.748 14.3144 18.2726C14.2756 17.7973 13.9737 17.2996 13.4984 17.2261C13.9615 16.8793 14.1104 16.2347 14.0349 15.6614C13.9594 15.0882 13.6698 14.568 13.3923 14.06L12.1683 11.816C12.7098 11.6112 13.185 11.2624 13.5427 10.8073C13.9004 10.3521 14.1271 9.80792 14.1981 9.2334C15.1814 9.57204 16.3829 8.81316 16.4951 7.77684C16.8694 8.24607 17.4078 8.55571 18.0016 8.64319C18.5954 8.73067 19.2002 8.58945 19.6939 8.24808C19.7836 8.91312 21.0994 9.11712 21.7685 9.07428C22.4377 9.03144 23.0619 8.34192 23.0619 8.34192C23.5119 8.43494 23.9752 8.44462 24.4287 8.37048L24.496 8.35213C25.3753 8.14813 25.9485 7.09753 26.1097 6.21013C26.3363 6.15814 26.5496 6.05948 26.736 5.92045C27.0522 5.66379 27.2742 5.30923 27.3669 4.91259C27.4596 4.51595 27.4178 4.09974 27.248 3.72948Z" fill="#263238"/>
<path id="Vector_59" d="M22.4581 2.10547C22.5023 2.13274 22.5427 2.16566 22.5784 2.20339C22.685 2.30752 22.7751 2.4272 22.8457 2.55835C22.9602 2.76537 23.0336 2.99258 23.0619 3.22747C23.1003 3.54056 23.0597 3.85828 22.9436 4.15159C22.7939 4.50599 22.5226 4.79535 22.1786 4.96759C21.7818 5.16628 21.3287 5.22246 20.8954 5.12671C20.6612 5.07553 20.4407 4.97466 20.2488 4.83091C20.1463 4.75842 20.0573 4.66868 19.9856 4.56571C19.9072 4.45833 19.8606 4.3311 19.851 4.19851C19.8487 4.12883 19.8614 4.05948 19.8881 3.9951C19.9149 3.93072 19.9551 3.87279 20.006 3.82519C20.109 3.73428 20.2356 3.67419 20.3712 3.65179C20.5064 3.62534 20.6458 3.62952 20.7792 3.66403C20.9125 3.69288 21.0397 3.74539 21.1545 3.81907C21.3779 3.96202 21.5586 4.16247 21.6778 4.39938C21.797 4.63629 21.8502 4.90091 21.8318 5.16547C21.8062 5.40838 21.7324 5.64374 21.6147 5.85777C21.497 6.0718 21.3378 6.26019 21.1464 6.41191C20.8029 6.68807 20.3886 6.86198 19.9509 6.91375C19.5747 6.95917 19.1936 6.94263 18.8228 6.86479C18.2919 6.74464 17.7779 6.55893 17.2928 6.31195C17.1194 6.22831 16.9888 6.15895 16.8991 6.10795C16.8527 6.08553 16.8078 6.06032 16.7644 6.03247C16.8139 6.04639 16.8618 6.06553 16.9072 6.08959L17.3152 6.27115C17.8026 6.50057 18.3146 6.67373 18.8412 6.78727C19.2041 6.8579 19.5761 6.86961 19.9428 6.82195C20.3628 6.76994 20.7595 6.60021 21.0872 6.33235C21.2672 6.188 21.417 6.00954 21.528 5.80721C21.639 5.60488 21.7089 5.38264 21.7339 5.15323C21.7497 4.9076 21.6993 4.66223 21.5881 4.44266C21.4769 4.22309 21.3088 4.03734 21.1015 3.90475C20.9976 3.83707 20.8821 3.78934 20.7608 3.76399C20.6428 3.73352 20.5195 3.72934 20.3997 3.75175C20.2845 3.77014 20.1769 3.82111 20.0896 3.89863C20.0487 3.93554 20.0163 3.98096 19.9948 4.03171C19.9733 4.08247 19.9632 4.13731 19.9652 4.19239C19.9813 4.30458 20.0214 4.412 20.0826 4.50738C20.1438 4.60276 20.2249 4.68387 20.3202 4.74523C20.5014 4.88217 20.7102 4.97821 20.9322 5.02675C21.3444 5.12158 21.7768 5.07114 22.1562 4.88395C22.4856 4.72139 22.746 4.44646 22.8906 4.10875C22.9917 3.86151 23.0382 3.59534 23.027 3.32845C23.0157 3.06157 22.9469 2.80026 22.8253 2.56243C22.7273 2.39197 22.6035 2.2378 22.4581 2.10547Z" fill="#455A64"/>
<path id="Vector_60" d="M2.70272 49.9724C2.70272 49.9724 0.768803 56.9737 0.342443 58.6832C-0.0839173 60.3927 -0.0879974 64.3646 0.881003 65.5396C1.85 66.7147 5.04872 67.4634 5.04872 67.4634C5.04872 67.4634 11.3258 64.4034 13.4637 60.6579C15.6016 56.9125 21.4442 46.7451 21.4442 46.7451L19.5939 41.6655L9.86108 50.9577L9.96308 49.748L2.70272 49.9724Z" fill="#EFBE9D"/>
<path id="Vector_61" d="M23.0293 25.6452C23.1094 25.6042 23.1969 25.5794 23.2867 25.5724C23.3764 25.5654 23.4667 25.5762 23.5523 25.6043C23.6378 25.6324 23.717 25.6771 23.7851 25.736C23.8533 25.7948 23.9091 25.8666 23.9493 25.9471L29.5512 37.1018L28.1232 37.7403L22.7233 26.551C22.6457 26.3899 22.6343 26.205 22.6915 26.0357C22.7487 25.8663 22.87 25.7262 23.0293 25.6452Z" fill="#455A64"/>
<path id="Vector_62" d="M19.292 41.9858L24.5287 36.5859H29.5471L32.756 40.8291C32.756 40.8291 31.2321 41.1127 30.6874 40.2947L29.9775 39.2849C29.9775 39.2849 30.6874 40.8393 30.306 41.6043C30.306 41.6043 29.5532 43.3771 29.4328 43.5668C29.2044 43.9238 29.0248 44.1523 28.3761 44.0442C27.7274 43.9361 26.7054 43.4036 26.8135 43.0242C26.8475 42.9133 26.9114 42.814 26.9981 42.737C27.0848 42.66 27.191 42.6083 27.3051 42.5876L25.7772 42.3693C25.7772 42.3693 24.239 45.156 23.3128 45.8108C22.7397 46.2112 22.1117 46.5266 21.4483 46.7472L19.292 41.9858Z" fill="#EFBE9D"/>
<path id="Vector_63" d="M10.0569 50.7944C10.0692 50.821 9.63463 51.0229 8.96755 51.4064C8.10206 51.914 7.2883 52.505 6.53791 53.171C5.7878 53.8417 5.1046 54.5837 4.49791 55.3865C4.03483 55.9985 3.78595 56.4065 3.76147 56.4065C3.79858 56.3001 3.84859 56.1987 3.91039 56.1046C4.06104 55.8369 4.22583 55.5774 4.40407 55.3273C5.56778 53.6585 7.10443 52.2839 8.89207 51.3126C9.23479 51.131 9.5204 50.9943 9.72031 50.9046C9.82726 50.8534 9.94041 50.8164 10.0569 50.7944Z" fill="#E7996E"/>
<path id="Vector_64" d="M25.669 38.1547C25.9091 38.0856 26.1561 38.0439 26.4055 38.0302C26.8604 37.9731 27.4928 37.9078 28.1905 37.8466C28.3666 37.8252 28.5447 37.8252 28.7209 37.8466C28.8897 37.8732 29.0502 37.9381 29.1901 38.0363C29.4188 38.2015 29.602 38.4219 29.7225 38.6769C29.8427 38.899 29.9221 39.1408 29.9571 39.3909C29.9306 39.4011 29.8347 39.1277 29.6185 38.732C29.4944 38.505 29.3191 38.3101 29.1064 38.1628C28.9835 38.0817 28.8442 38.0287 28.6984 38.0078C28.5351 37.9895 28.3702 37.9895 28.2068 38.0078C27.5091 38.069 26.8767 38.1159 26.4177 38.1424C26.1694 38.1745 25.9183 38.1786 25.669 38.1547Z" fill="#E7996E"/>
<path id="Vector_65" d="M29.6674 43.2953C29.6389 43.2953 29.6878 42.9139 29.6552 42.3059C29.6352 41.9511 29.5868 41.5984 29.5104 41.2513C29.4247 40.8698 29.3064 40.4128 28.9188 40.1905C28.7264 40.0884 28.5203 40.0149 28.3068 39.9722L27.6948 39.8314C27.3462 39.7517 26.9924 39.6972 26.636 39.6682C26.308 39.6579 25.9798 39.6661 25.6527 39.6927C25.7324 39.6494 25.8197 39.6217 25.9098 39.6111C26.1509 39.564 26.3965 39.5441 26.6421 39.5519C27.0048 39.5646 27.3658 39.6076 27.7213 39.6805C27.9253 39.7192 28.1293 39.7641 28.3455 39.8131C28.5782 39.8557 28.8026 39.9349 29.0106 40.0477C29.2202 40.1755 29.3843 40.3661 29.4798 40.5923C29.5651 40.7934 29.6274 41.0035 29.6654 41.2186C29.7364 41.5747 29.774 41.9367 29.7776 42.2998C29.7805 42.544 29.7655 42.7881 29.7327 43.0301C29.7263 43.1216 29.7042 43.2113 29.6674 43.2953Z" fill="#E7996E"/>
<path id="Vector_66" d="M27.86 41.4819C27.9029 41.4819 27.9355 41.9185 27.9396 42.4877V42.5856L27.8376 42.5672C27.7825 42.5564 27.7264 42.551 27.6703 42.5509C27.4084 42.56 27.16 42.6696 26.9767 42.8569C26.8359 43.0038 26.7911 43.1323 26.7727 43.1241C26.7543 43.116 26.7605 42.9711 26.8951 42.7814C26.9872 42.6604 27.1055 42.5619 27.2412 42.4934C27.3769 42.4248 27.5264 42.388 27.6785 42.3857C27.7471 42.3858 27.8154 42.3933 27.8825 42.4081L27.7825 42.4877C27.7743 41.9124 27.809 41.4819 27.86 41.4819Z" fill="#E7996E"/>
<path id="Vector_67" d="M27.86 41.6491C27.86 41.6961 27.399 41.6287 26.84 41.6002C26.281 41.5716 25.82 41.5879 25.82 41.541C25.82 41.4941 26.2708 41.4043 26.84 41.4349C27.4092 41.4655 27.86 41.6063 27.86 41.6491Z" fill="#E7996E"/>
<path id="Vector_68" d="M25.9036 41.3878C25.9465 41.3878 25.9036 41.8835 25.6772 42.4384C25.4508 42.9933 25.1203 43.3625 25.0856 43.336C25.0509 43.3095 25.3018 42.9076 25.5242 42.3731C25.7466 41.8386 25.8547 41.3796 25.9036 41.3878Z" fill="#E7996E"/>
<path id="Vector_69" d="M58.7762 41.9817C58.7762 41.9817 62.2279 37.4937 62.6053 37.2897C62.9827 37.0857 67.7889 36.3921 67.7889 36.3921C67.7889 36.3921 67.5849 37.9099 66.1957 38.3566C65.2124 38.6728 64.0598 38.9196 64.0598 38.9196C64.0598 38.9196 64.4433 41.8613 63.7355 43.0405C63.1514 43.9414 62.4893 44.7892 61.7567 45.5741L58.7762 41.9817Z" fill="#EFBE9D"/>
<path id="Vector_70" d="M63.0867 43.7235C63.395 43.3597 63.6386 42.9457 63.8069 42.4995C63.972 42.0073 64.0668 41.4943 64.0884 40.9756C64.1047 40.6691 64.1047 40.362 64.0884 40.0556C64.0755 39.8951 64.0524 39.7357 64.019 39.5782C63.9775 39.4064 63.972 39.2279 64.0027 39.0539C64.0216 39.0082 64.0493 38.9666 64.0843 38.9315C64.1193 38.8965 64.1609 38.8688 64.2067 38.8499C64.2846 38.8119 64.3659 38.7812 64.4494 38.7581C64.6086 38.7136 64.77 38.6775 64.9329 38.65C65.2351 38.6024 65.5336 38.5342 65.8264 38.446C66.3259 38.3094 66.7805 38.0434 67.1443 37.6749C67.3782 37.4163 67.5561 37.1121 67.6665 36.7814C67.7481 36.5468 67.7747 36.4101 67.7849 36.4121C67.7863 36.4459 67.7821 36.4797 67.7726 36.5121C67.7567 36.6074 67.7342 36.7014 67.7053 36.7936C67.6078 37.138 67.435 37.4564 67.1994 37.7259C66.833 38.1141 66.3685 38.3961 65.855 38.5419C65.5594 38.6366 65.2574 38.7102 64.9513 38.7622C64.7925 38.7903 64.6352 38.8263 64.4801 38.8703C64.4019 38.8912 64.326 38.9199 64.2536 38.956C64.1868 38.981 64.132 39.0307 64.1006 39.0947C64.0771 39.2523 64.0841 39.413 64.121 39.568C64.1554 39.7301 64.1786 39.8944 64.1904 40.0597C64.2078 40.3695 64.2078 40.6801 64.1904 40.9899C64.1643 41.5172 64.0598 42.0377 63.8803 42.5342C63.7538 42.8622 63.5769 43.1685 63.356 43.442C63.2964 43.5178 63.2317 43.5893 63.1622 43.6562C63.1398 43.6815 63.1144 43.7041 63.0867 43.7235Z" fill="#E7996E"/>
</g>
</svg>
